<svg width="28" height="28" xmlns="http://www.w3.org/2000/svg">

 <g>
  <title>background</title>
  <rect fill="none" id="canvas_background" height="30" width="30" y="-1" x="-1"/>
 </g>
 <g>
  <title>Layer 1</title>
  <path id="svg_2" fill="#303030" d="m14.04492,3c-6.09033,0 -11.04492,4.95508 -11.04492,11.04541s4.95459,11.04492 11.04492,11.04492s11.04541,-4.95459 11.04541,-11.04492s-4.95508,-11.04541 -11.04541,-11.04541zm-0.45581,14.44031c0.06226,0.18689 -0.48273,0.73187 -0.52942,0.763c-0.04675,0.03113 -1.05884,-0.52942 -1.2301,-0.60724c-0.17133,-0.07788 -0.56055,-1.33911 -0.56055,-1.33911l-0.37372,-0.35815c0,0 -0.85638,-0.63837 -0.93427,-0.66956c-0.07782,-0.03113 -0.23352,-1.23004 -0.28345,-1.33905c-0.04987,-0.10901 -0.38611,-0.4516 -0.47949,-0.51385c-0.09344,-0.06226 -0.14014,-1.12109 -0.14014,-1.12109s0.04669,-0.60724 0.35809,-1.05884c0.31146,-0.45154 0.29584,-1.2301 0.20245,-1.3858c-0.09344,-0.1557 -0.70398,0.07001 -0.70398,0.07001s-0.47223,-0.23419 -0.51892,-0.20306l-0.31586,-0.58655c0,0 -1.88116,-0.13379 -1.85004,-0.18048c0,0 2.99658,-4.76923 9.21619,-4.0556l0.10876,0c0.33734,0.02509 0.64801,0.02533 0.82458,0.3382c0.03455,0.06116 0.66675,0.61578 0.651,0.61578c-0.00354,0 -1.72839,0 -1.72839,0l-0.35815,0.3114l1.57397,0.94019c-0.21552,0.05878 -0.65338,0.19531 -0.94855,0.28851c-0.19836,0.06268 -0.38184,0.15747 -0.54822,0.28223l-0.62213,0.46661l-0.57867,0.82526l0.84332,0.6228c0,0 0.98096,0.74744 1.02771,0.77856c0.04669,0.03113 0.24915,-0.62286 0.24915,-0.62286c-0.02081,-0.50348 -0.04156,-1.0069 -0.06232,-1.51038c0.1557,0.05194 0.3114,0.10382 0.4671,0.1557l0.68512,-0.06226c0,0 0.68512,0.52942 0.763,0.59167c0.07782,0.06232 0.38928,0.73187 0.38928,0.73187c-0.00952,0.10468 -0.08276,0.67688 0.05035,0.69788c0.02588,0.00409 0.05133,-0.00751 0.07483,-0.01892c0.23602,-0.11462 0.46112,-0.24854 0.68671,-0.38208c0.10669,-0.06323 0.33539,-0.26575 0.4649,-0.26575c0.04669,0 -0.20239,0.56055 -0.23358,0.60724c-0.02448,0.03674 -0.60754,1.00769 -0.85547,1.42072c-0.07489,0.12476 -0.1615,0.23553 -0.26361,0.33929l-0.81165,0.82477l0.28027,0.48267l-0.67737,0.80176c-0.05701,0.0675 -0.11884,0.1308 -0.18494,0.18945l-0.72595,0.64374c0,0 -0.79413,0.18689 -0.84082,0.18689c-0.04675,0 -0.63843,0.14014 -0.63843,0.14014s-1.12109,-0.10901 -1.27679,0.48267c-0.15566,0.59172 0.29588,1.49479 0.3582,1.68162zm8.27136,-2.888c0.1416,-0.03149 -0.37762,0.66083 -0.40912,0.77094c-0.03143,0.11011 -0.56641,0.66083 -0.56641,0.66083l-0.8811,0.11011c0.14374,-0.82275 0.82379,-1.44086 1.65552,-1.51801c0.09985,-0.00928 0.17254,-0.01752 0.20111,-0.02387zm-5.01154,2.76581l-0.4129,-0.61108c-0.03302,-0.04956 0.16516,-0.26428 0.16516,-0.26428s1.56903,-0.2312 1.71765,-0.21472c0.14862,0.01654 0.39636,0.479 0.39636,0.479s-0.54498,0.71014 -0.72668,0.71014c-0.18164,0 -1.13959,-0.09906 -1.13959,-0.09906zm0.41724,2.14307c0,0 -0.18878,0.07867 -0.37756,0.1731c-0.18884,0.09436 -0.4248,0.17303 -0.4563,0.11011s-0.1731,-0.15729 -0.4248,-0.34613c-0.25177,-0.18878 -0.58215,-0.36188 -0.75525,-0.44055c-0.17303,-0.07861 -0.56641,-0.37756 -0.62933,-0.51917c-0.04041,-0.09094 0.15735,-0.36188 0.18878,-0.50348c0.03149,-0.1416 -0.01569,-0.56372 0.07867,-0.51788c0.09442,0.04584 0.29895,-0.07727 0.50348,0c0.20459,0.07733 0.51923,0.23468 0.58215,0.36053c0.06299,0.12585 0.22028,0.40906 0.39337,0.51923c0.17303,0.11011 0.48773,0.23596 0.47198,0.44049c-0.01569,0.20459 0.23602,0.47205 0.23602,0.47205l0.18879,0.2517zm0.30762,2.94378c-0.85699,-0.37988 -1.07172,-0.80927 -1.00562,-0.89185c0.06604,-0.08258 0.61108,-0.5285 0.77625,-0.75977c0.16516,-0.2312 1.02399,-1.20563 1.02399,-1.20563l-0.26428,-0.5285l0.7381,-0.43616c0.23181,-0.13696 0.49084,-0.2215 0.75879,-0.2475l0.7182,-0.06982c0.04272,-0.00421 0.08557,-0.00684 0.12848,-0.008l1.15778,-0.03131c0,0 1.05194,-0.2724 0.89185,0.01654c-2.41207,4.35432 -4.92354,4.162 -4.92354,4.162z"/>
 </g>
</svg>