<?xml version="1.0" ?><svg style="enable-background:new 0 0 48 48;" version="1.1" viewBox="0 0 48 48" xml:space="preserve" xmlns="http://www.w3.org/2000/svg" xmlns:xlink="http://www.w3.org/1999/xlink"><g id="Padding__x26__Artboard"/><g id="Icons"><g><path d="M39.10255,31.68157l-0.10498-0.10498c-0.65674-0.63086-1.51758-1.05762-2.34961-1.4707    c-0.18164-0.08984-0.35986-0.17871-0.5293-0.26611c-0.5127-0.271-1.0249-0.53271-1.57129-0.80615    c-0.6626-0.34033-1.1416-0.58643-1.39551-1.21045c-0.23926-0.62012-0.25781-0.69873-0.29004-1.26904l0.27295-0.33887    c0.22852-0.33789,0.39697-1.24023,0.4707-1.70068c0.30762-0.13135,0.54443-0.44141,0.64258-0.74756l0.03564-0.10889    c0.12305-0.37646,0.23926-0.73193,0.29004-1.15527l0.00879-0.08936c0.03369-0.31494,0.08447-0.7915-0.23438-1.09375    c-0.07666-0.09521-0.21143-0.15283-0.3457-0.18311c0.01318-0.27539,0.02881-0.7124,0.04785-1.41553l0.32959-0.23828    c0.10449-0.07568,0.15918-0.20264,0.1416-0.33057l-0.14355-1.05371c-0.021-0.10205-0.54541-2.49658-3.11523-3.09082    c-2.18506-0.49658-3.63477,0.43115-4.02539,0.72559c-0.6084,0.03906-1.35059,0.37744-1.69189,1.66992    c-0.24561,0.97266,0.00342,2.14502,0.00928,2.14502c0.02148,0.79785,0.03906,1.28418,0.05615,1.58691    c-0.12695,0.02686-0.24902,0.0752-0.30859,0.15137c-0.36816,0.354-0.30225,0.85938-0.25488,1.22363    c0.0542,0.45459,0.18066,0.84424,0.31396,1.25586c0.09668,0.30176,0.32959,0.62109,0.65234,0.75195    c0.07227,0.46436,0.23975,1.36719,0.48926,1.72168l0.25488,0.31494c-0.03174,0.56836-0.05078,0.64697-0.29834,1.26611    c-0.25586,0.64795-0.53369,0.78906-1.20361,1.12842c-0.08594,0.04297-0.15137,0.07178-0.22217,0.10303l-0.19385,0.08789    c-0.12012,0.05664-0.19775,0.17676-0.20068,0.30957c-0.00244,0.1333,0.0708,0.25635,0.18896,0.31738    c1.01904,0.52881,2.80176,1.72314,3.28613,3.78222c0.03711,0.1582,0.17822,0.27002,0.34082,0.27002h11.27978    c0.10352,0,0.20166-0.0459,0.26807-0.125s0.09473-0.18359,0.07666-0.28564C40.03419,33.14983,39.7754,32.45988,39.10255,31.68157z    " style="fill:#303030;"/><path d="M27.38575,33.38908c-0.07324-0.31104-0.30908-1.11084-0.96094-1.86865    c-0.00732-0.0083-0.05859-0.06494-0.06641-0.07227c-0.61914-0.60156-1.41943-1.01221-2.19385-1.40918l-0.37305-0.19287    c-0.05225-0.02588-0.10449-0.05225-0.14844-0.07812c-0.01514-0.00879-0.14648-0.0708-0.16309-0.07715    c-0.26074-0.13965-0.5249-0.27539-0.79053-0.41162l-0.52051-0.26904c-0.11182-0.05908-0.22803-0.11719-0.34668-0.17578    c-0.53369-0.26465-1.08545-0.53809-1.27246-1.02588c-0.20221-0.5014-0.23737-1.05426-0.27203-1.63916h1.22711    c0.13574,0,0.25928-0.07861,0.31689-0.20166s0.03906-0.26807-0.04785-0.37256l-0.02637-0.03125    c1.47754-0.31982,1.47754-0.46777,1.47754-0.71484c0-0.23438-0.15723-0.43799-0.27246-0.58643l-0.05273-0.07031    c-0.02783-0.04004-0.06885-0.08936-0.11523-0.14404c-0.04688-0.05518-0.1333-0.16406-0.14746-0.13232    c0.03955-0.35547,0.1626-0.69092,0.29297-1.0459c0.09229-0.25195,0.18359-0.50293,0.24805-0.76074    c0.07861-0.31592,0.07275-0.65771,0.06738-0.97363c-0.01074-0.63721-0.10498-1.32275-0.28125-2.03809    c-0.18994-0.76904-0.45459-1.48779-0.7876-2.13525c-0.37842-0.73535-0.82617-1.33887-1.33057-1.79346    c-0.57666-0.521-1.24707-0.8501-1.93799-0.95215c-0.75635-0.10938-1.56006,0.03027-2.39453,0.42334    c-0.42773,0.00977-0.84473,0.09424-1.24023,0.25244c-0.78516,0.31396-1.49121,0.92383-2.0415,1.76416    c-0.50146,0.76514-0.8623,1.69482-1.04346,2.68896c-0.2002,1.09668-0.17676,2.13818,0.06738,3.01123    c0.0542,0.19531,0.11865,0.3877,0.18359,0.57959c0.04102,0.12158,0.08203,0.24268,0.11963,0.36426l0.04443,0.13232    c0.03467,0.09912,0.11572,0.33105,0.12402,0.36572c-0.05176,0.07715-0.10742,0.15137-0.16357,0.22607    c-0.05713,0.07617-0.11426,0.15283-0.21045,0.28906c-0.10059,0.13379-0.23877,0.31689-0.23877,0.53516    c0,0.24756,0,0.39551,1.48535,0.7168l-0.02686,0.03271c-0.08496,0.10498-0.10205,0.24951-0.04395,0.37109    c0.05811,0.12207,0.18115,0.19971,0.31592,0.19971h1.22095c-0.02747,0.56189-0.06366,1.13763-0.26636,1.64062    c-0.18994,0.47852-0.75391,0.75195-1.29883,1.01611c-0.12598,0.06104-0.25,0.12109-0.43213,0.21533    c-0.46826,0.23926-0.93652,0.47852-1.40039,0.71973c-0.17334,0.09375-0.354,0.18701-0.5376,0.28174    c-0.73535,0.37988-1.56836,0.80957-2.23389,1.45752L8.83937,31.5717c-0.60596,0.70654-0.8418,1.50635-0.91504,1.81738    c-0.02441,0.104,0,0.21338,0.06641,0.29736c0.06641,0.08398,0.16748,0.13281,0.27441,0.13281h11.60986h7.16992    c0.00024,0,0.00043-0.00012,0.00043-0.00012c0.02673-0.00012,0.05316-0.00287,0.07965-0.00916    c0.00995-0.00238,0.01721-0.00922,0.02679-0.01233c0.02325-0.00757,0.04388-0.0177,0.0647-0.02972    c0.01904-0.01099,0.03699-0.02179,0.05341-0.03595c0.01733-0.01483,0.03137-0.03137,0.04553-0.04932    c0.01379-0.01746,0.02625-0.03442,0.0365-0.05414c0.01025-0.01965,0.01691-0.03998,0.02332-0.06158    c0.00677-0.02264,0.01184-0.04474,0.01392-0.06873c0.00085-0.01007,0.00586-0.01874,0.00586-0.02905    c0-0.0141-0.00641-0.026-0.008-0.03967C27.38551,33.41588,27.38893,33.40276,27.38575,33.38908z" style="fill:#303030;"/></g></g></svg>